<mxfile host="app.diagrams.net" agent="Mozilla/5.0 (Windows NT 10.0; Win64; x64) AppleWebKit/537.36 (KHTML, like Gecko) Chrome/128.0.0.0 Safari/537.36" version="24.7.10">
  <diagram name="Page-1" id="p595LLRQRtuAEGVOOYMs">
    <mxGraphModel grid="1" page="0" gridSize="14" guides="1" tooltips="1" connect="1" arrows="1" fold="1" pageScale="1" pageWidth="1169" pageHeight="827" background="none" math="0" shadow="0">
      <root>
        <mxCell id="0" />
        <mxCell id="1" parent="0" />
        <mxCell id="mYAbnXGbOafx_x_awNhO-3" value="" style="shape=image;html=1;verticalAlign=top;verticalLabelPosition=bottom;labelBackgroundColor=#ffffff;imageAspect=0;aspect=fixed;image=https://cdn2.iconfinder.com/data/icons/simple-files/128/csv1.png" vertex="1" parent="1">
          <mxGeometry x="300" y="200" width="48" height="48" as="geometry" />
        </mxCell>
        <mxCell id="GgJmoDBTikBVSkLazBTT-7" style="edgeStyle=orthogonalEdgeStyle;rounded=0;orthogonalLoop=1;jettySize=auto;html=1;" edge="1" parent="1" source="mYAbnXGbOafx_x_awNhO-4" target="mYAbnXGbOafx_x_awNhO-5">
          <mxGeometry relative="1" as="geometry" />
        </mxCell>
        <mxCell id="mYAbnXGbOafx_x_awNhO-4" value="" style="sketch=0;pointerEvents=1;shadow=0;dashed=0;html=1;strokeColor=none;fillColor=#505050;labelPosition=center;verticalLabelPosition=bottom;verticalAlign=top;outlineConnect=0;align=center;shape=mxgraph.office.concepts.folder_open;" vertex="1" parent="1">
          <mxGeometry x="400" y="214.5" width="130" height="91" as="geometry" />
        </mxCell>
        <mxCell id="GgJmoDBTikBVSkLazBTT-8" value="" style="edgeStyle=orthogonalEdgeStyle;rounded=0;orthogonalLoop=1;jettySize=auto;html=1;" edge="1" parent="1" source="mYAbnXGbOafx_x_awNhO-5" target="mYAbnXGbOafx_x_awNhO-6">
          <mxGeometry relative="1" as="geometry" />
        </mxCell>
        <mxCell id="mYAbnXGbOafx_x_awNhO-5" value="" style="sketch=0;pointerEvents=1;shadow=0;dashed=0;html=1;strokeColor=none;fillColor=#505050;labelPosition=center;verticalLabelPosition=bottom;verticalAlign=top;outlineConnect=0;align=center;shape=mxgraph.office.concepts.folder_open;" vertex="1" parent="1">
          <mxGeometry x="680" y="214.5" width="120" height="91" as="geometry" />
        </mxCell>
        <mxCell id="mYAbnXGbOafx_x_awNhO-6" value="" style="sketch=0;pointerEvents=1;shadow=0;dashed=0;html=1;strokeColor=none;fillColor=#505050;labelPosition=center;verticalLabelPosition=bottom;verticalAlign=top;outlineConnect=0;align=center;shape=mxgraph.office.concepts.folder_open;" vertex="1" parent="1">
          <mxGeometry x="930" y="214.5" width="120" height="91" as="geometry" />
        </mxCell>
        <mxCell id="GgJmoDBTikBVSkLazBTT-1" value="" style="shape=image;html=1;verticalAlign=top;verticalLabelPosition=bottom;labelBackgroundColor=#ffffff;imageAspect=0;aspect=fixed;image=https://cdn2.iconfinder.com/data/icons/simple-files/128/csv1.png" vertex="1" parent="1">
          <mxGeometry x="840" y="200" width="48" height="48" as="geometry" />
        </mxCell>
        <mxCell id="GgJmoDBTikBVSkLazBTT-2" value="" style="verticalLabelPosition=bottom;html=1;verticalAlign=top;align=center;strokeColor=none;fillColor=#00BEF2;shape=mxgraph.azure.startup_task;pointerEvents=1;" vertex="1" parent="1">
          <mxGeometry x="584.5" y="200" width="47.5" height="50" as="geometry" />
        </mxCell>
        <mxCell id="GgJmoDBTikBVSkLazBTT-10" style="edgeStyle=orthogonalEdgeStyle;rounded=0;orthogonalLoop=1;jettySize=auto;html=1;" edge="1" parent="1" source="mYAbnXGbOafx_x_awNhO-2" target="mYAbnXGbOafx_x_awNhO-4">
          <mxGeometry relative="1" as="geometry" />
        </mxCell>
        <mxCell id="mYAbnXGbOafx_x_awNhO-2" value="" style="image;aspect=fixed;html=1;points=[];align=center;fontSize=12;image=img/lib/azure2/app_services/API_Management_Services.svg;" vertex="1" parent="1">
          <mxGeometry x="130" y="200" width="129.52" height="120" as="geometry" />
        </mxCell>
        <mxCell id="GgJmoDBTikBVSkLazBTT-11" value="&lt;b&gt;&lt;font style=&quot;font-size: 15px;&quot;&gt;Raw&lt;/font&gt;&lt;/b&gt;" style="text;html=1;align=center;verticalAlign=middle;whiteSpace=wrap;rounded=0;" vertex="1" parent="1">
          <mxGeometry x="435" y="320" width="60" height="30" as="geometry" />
        </mxCell>
        <mxCell id="GgJmoDBTikBVSkLazBTT-13" value="&lt;b&gt;&lt;font style=&quot;font-size: 15px;&quot;&gt;Transformed&lt;/font&gt;&lt;/b&gt;" style="text;html=1;align=center;verticalAlign=middle;whiteSpace=wrap;rounded=0;" vertex="1" parent="1">
          <mxGeometry x="700" y="320" width="60" height="30" as="geometry" />
        </mxCell>
        <mxCell id="GgJmoDBTikBVSkLazBTT-14" value="&lt;font style=&quot;font-size: 15px;&quot;&gt;&lt;b&gt;Gold&lt;/b&gt;&lt;/font&gt;" style="text;html=1;align=center;verticalAlign=middle;whiteSpace=wrap;rounded=0;" vertex="1" parent="1">
          <mxGeometry x="960" y="320" width="60" height="30" as="geometry" />
        </mxCell>
        <mxCell id="mYAbnXGbOafx_x_awNhO-1" value="" style="verticalLabelPosition=bottom;verticalAlign=top;html=1;shape=mxgraph.basic.rect;fillColor2=none;strokeWidth=1;size=20;indent=5;fillColor=none;fontStyle=1" vertex="1" parent="1">
          <mxGeometry x="112" y="140" width="963" height="224" as="geometry" />
        </mxCell>
        <mxCell id="GgJmoDBTikBVSkLazBTT-15" value="" style="strokeColor=#dddddd;shadow=1;strokeWidth=1;rounded=1;absoluteArcSize=1;arcSize=2;" vertex="1" parent="1">
          <mxGeometry x="952" y="140" width="110" height="40" as="geometry" />
        </mxCell>
        <mxCell id="GgJmoDBTikBVSkLazBTT-16" value="Scheduled&#xa;Tasks" style="sketch=0;dashed=0;connectable=0;html=1;fillColor=#757575;strokeColor=none;shape=mxgraph.gcp2.scheduled_tasks;part=1;labelPosition=right;verticalLabelPosition=middle;align=left;verticalAlign=middle;spacingLeft=5;fontSize=12;" vertex="1" parent="GgJmoDBTikBVSkLazBTT-15">
          <mxGeometry y="0.5" width="32" height="32" relative="1" as="geometry">
            <mxPoint x="5" y="-16" as="offset" />
          </mxGeometry>
        </mxCell>
      </root>
    </mxGraphModel>
  </diagram>
</mxfile>
